/vscmnt/brussel_pixiu_data/_data_brussel/112/vsc11236/PredSimResults/SUBJ04mtu3D/worker10.mot
version=1
nRows=4
nColumns=50
inDegrees=yes
endheader
                time	         pelvis_tilt	         pelvis_list	     pelvis_rotation	           pelvis_tx	           pelvis_ty	           pelvis_tz	       hip_flexion_r	     hip_adduction_r	      hip_rotation_r	        knee_angle_r	       ankle_angle_r	         mtp_angle_r	       hip_flexion_l	     hip_adduction_l	      hip_rotation_l	        knee_angle_l	       ankle_angle_l	         mtp_angle_l	    lumbar_extension	      lumbar_bending	     lumbar_rotation	 ercspn_r/activation	 intobl_r/activation	 extobl_r/activation	    abd_r/activation	    add_r/activation	hamstrings_r/activation	bifemsh_r/activation	glut_max_r/activation	iliopsoas_r/activation	rect_fem_r/activation	  vasti_r/activation	gastroc_r/activation	 soleus_r/activation	tib_ant_r/activation	 ercspn_l/activation	 intobl_l/activation	 extobl_l/activation	    abd_l/activation	    add_l/activation	hamstrings_l/activation	bifemsh_l/activation	glut_max_l/activation	iliopsoas_l/activation	rect_fem_l/activation	  vasti_l/activation	gastroc_l/activation	 soleus_l/activation	tib_ant_l/activation	
          0.65443339	         -2.22634611	         -0.66213590	         -8.14682621	          0.61516739	          0.88092662	          0.01174412	        -12.60367842	         -0.39862787	         -9.01326977	         -8.39754515	         12.51931897	         21.61060333	         29.37848044	         -3.79097093	        -10.62035142	        -11.78127910	          4.39843806	          0.23654822	        -13.73343574	          3.34673793	          7.46343968	          0.04053806	          0.01000001	          0.01000001	          0.05070240	          0.01000029	          0.02086753	          0.17639132	          0.01483907	          0.01219583	          0.01000028	          0.01000006	          0.24930498	          0.25291040	          0.01000000	          0.03904126	          0.22346809	          0.01959672	          0.01000001	          0.30145174	          0.06896402	          0.03935893	          0.03259578	          0.15538374	          0.03154373	          0.02883682	          0.01000034	          0.01463875	          0.32345451	
          0.66752206	         -2.31368531	         -0.64495206	         -7.91477928	          0.63094068	          0.87875332	          0.01123564	        -13.27515682	         -0.54065083	         -9.67134215	         -8.98186371	         12.14932412	         23.06125464	         29.19588482	         -3.66477992	        -10.71095616	        -13.09495839	          4.16260697	          0.22416961	        -13.23174858	          2.74637774	          7.56046153	          0.03918414	          0.01000001	          0.01000008	          0.04162265	          0.01000036	          0.01713147	          0.14480334	          0.01218171	          0.01001227	          0.01000014	          0.01000008	          0.20813023	          0.24446724	          0.01000001	          0.03204981	          0.22747556	          0.01608736	          0.02660882	          0.24746805	          0.06639927	          0.03231071	          0.04410429	          0.12755774	          0.02589490	          0.02690472	          0.01218163	          0.01262284	          0.35116350	
          0.68061072	         -2.38652513	         -0.57340009	         -7.63127485	          0.64698590	          0.87683326	          0.01063056	        -13.85067862	         -0.75465321	        -10.36514277	         -9.79326596	         11.68831681	         24.53479538	         28.95690194	         -3.50766268	        -10.83148941	        -14.28916949	          3.71022155	          0.21641572	        -12.70984847	          2.06674423	          7.62621834	          0.04572308	          0.01000000	          0.01000002	          0.03416890	          0.01000013	          0.01406447	          0.11887210	          0.01000023	          0.01483920	          0.01000020	          0.01000006	          0.17085842	          0.22894468	          0.01000000	          0.02693385	          0.18673942	          0.01320645	          0.04399232	          0.22666720	          0.06948972	          0.02652473	          0.03620619	          0.10471479	          0.02125767	          0.08865228	          0.01000019	          0.01036237	          0.38207569	
          0.69369939	         -2.44570601	         -0.46261225	         -7.29856168	          0.66315790	          0.87535015	          0.00990788	        -14.26593756	         -1.03701215	        -11.09256437	        -10.92374821	         11.08364114	         26.04500908	         28.66846824	         -3.31881138	        -11.05448126	        -15.40267904	          3.25691855	          0.19364826	        -12.19040520	          1.33054774	          7.65871255	          0.05744553	          0.01000000	          0.01000002	          0.02804996	          0.01000013	          0.01174837	          0.09758459	          0.01000002	          0.01218199	          0.01000016	          0.01000004	          0.14026122	          0.20879524	          0.01000000	          0.03268264	          0.15329826	          0.01084146	          0.06586877	          0.20289885	          0.07042380	          0.02177489	          0.02972252	          0.08596254	          0.01745087	          0.15667026	          0.01000012	          0.01000004	          0.40799944	
